<svg width="28" height="31" viewBox="0 0 28 31" fill="none" xmlns="http://www.w3.org/2000/svg">
<path d="M13.758 0.0417637C13.585 0.122241 13.585 0.122241 13.4052 0.225644C13.3374 0.264185 13.2697 0.302725 13.1999 0.342434C13.1266 0.38483 13.0534 0.427231 12.9802 0.469636C12.9033 0.513594 12.8263 0.557493 12.7494 0.601334C12.5896 0.692421 12.4299 0.783764 12.2704 0.875292C11.9051 1.08455 11.5376 1.28996 11.1703 1.49577C11.0266 1.57651 10.8828 1.65731 10.7391 1.73811C10.6672 1.7785 10.5953 1.81888 10.5234 1.85927C4.91684 5.00962 4.91684 5.00962 4.80903 5.0702C4.73714 5.1106 4.66524 5.15099 4.59335 5.19139C4.41384 5.29225 4.23433 5.39313 4.05483 5.49402C3.72924 5.67703 3.40361 5.85996 3.07777 6.04255C2.93027 6.12522 2.78279 6.20794 2.63532 6.29066C2.53619 6.34624 2.43702 6.40174 2.33785 6.45724C2.207 6.53065 2.07703 6.60559 1.94794 6.68196C1.74447 6.79822 1.53595 6.89185 1.32051 6.98478C0.336106 7.43618 0.336106 7.43618 0.11691 7.83179C-0.0207514 8.27567 0.0021274 8.73378 0.0122839 9.19297C0.0102774 9.34572 0.00764209 9.49847 0.0044313 9.6512C-0.00158922 10.0214 -0.000742124 10.3911 0.00356296 10.7614C0.00691732 11.0624 0.00735014 11.3634 0.00574666 11.6645C0.00552008 11.7075 0.00529374 11.7505 0.0050603 11.7949C0.00458748 11.8823 0.00410623 11.9697 0.00362032 12.0571C-0.000585837 12.875 0.00423619 13.6925 0.0121989 14.5103C0.0188053 15.2105 0.0176571 15.9102 0.01084 16.6104C0.00290725 17.4255 -0.000178246 18.2403 0.00435218 19.0554C0.00482315 19.1425 0.00528801 19.2296 0.00574666 19.3167C0.00597478 19.3595 0.00620195 19.4024 0.00643698 19.4465C0.00770818 19.7468 0.00557164 20.0471 0.00207946 20.3474C-0.00252939 20.7526 0.000798395 21.1571 0.00931693 21.5623C0.0112627 21.7105 0.0107256 21.8587 0.00744971 22.0068C-0.0108622 22.9192 -0.0108634 22.9192 0.203613 23.3059C0.573725 23.6645 1.04091 23.8769 1.51198 24.0797C1.7214 24.1711 1.9145 24.278 2.11162 24.3926C2.22516 24.4546 2.33875 24.5164 2.45241 24.5781C2.95906 24.8552 3.46196 25.1377 3.96188 25.4263C4.52556 25.7518 5.09391 26.0679 5.66508 26.3805C6.10676 26.6228 6.54466 26.8708 6.9808 27.1226C7.54449 27.4481 8.11284 27.7643 8.68401 28.0768C9.1257 28.3192 9.56359 28.5672 9.99973 28.819C10.5625 29.1439 11.1297 29.4601 11.7004 29.7715C12.0336 29.9538 12.3642 30.1394 12.6921 30.331C12.7591 30.3701 12.8261 30.4092 12.8952 30.4494C13.0231 30.5243 13.1508 30.5997 13.2781 30.6757C13.3357 30.7094 13.3933 30.7431 13.4526 30.7778C13.5028 30.8076 13.553 30.8374 13.6047 30.8681C13.7855 30.9522 13.9278 30.9884 14.1277 31C14.2876 30.9425 14.2876 30.9425 14.4487 30.8502C14.5094 30.8161 14.5701 30.782 14.6326 30.7469C14.6972 30.7092 14.7619 30.6715 14.8285 30.6327C14.8965 30.5942 14.9645 30.5556 15.0345 30.5159C15.2463 30.3956 15.4571 30.2738 15.6679 30.1518C15.7932 30.0799 15.9185 30.008 16.0439 29.9362C16.2262 29.8317 16.4085 29.727 16.5906 29.6219C17.0296 29.369 17.4721 29.1229 17.9167 28.8796C18.4233 28.6024 18.9263 28.32 19.4262 28.0314C19.9994 27.7005 20.5768 27.3779 21.1576 27.0602C21.4929 26.8767 21.8271 26.6916 22.1601 26.5041C22.1996 26.4819 22.2391 26.4597 22.2798 26.4368C22.376 26.3827 22.4722 26.3286 22.5683 26.2745C22.5866 24.2992 22.6008 22.324 22.6092 20.3487C22.6102 20.1154 22.6113 19.8821 22.6123 19.6489C22.6127 19.5792 22.6127 19.5792 22.613 19.5082C22.6165 18.7565 22.6228 18.0048 22.6301 17.2532C22.6376 16.4818 22.6421 15.7104 22.6437 14.9389C22.6448 14.463 22.6483 13.9871 22.6548 13.5112C22.6595 13.1461 22.66 12.7811 22.6589 12.416C22.6592 12.2663 22.6608 12.1166 22.6638 11.967C22.6853 10.8652 22.6853 10.8652 22.4912 10.5985C22.2788 10.4059 22.0378 10.3158 21.7674 10.2198C21.6452 10.1542 21.5239 10.0868 21.4042 10.0168C21.2828 9.95053 21.1612 9.88442 21.0396 9.81845C20.5188 9.53389 20.0015 9.24434 19.4878 8.94756C18.9241 8.62209 18.3558 8.30593 17.7846 7.99337C17.3429 7.75105 16.9051 7.50298 16.4689 7.25122C15.9434 6.94852 15.4163 6.64882 14.8862 6.35382C14.8211 6.31715 14.7559 6.28049 14.6888 6.24271C14.6279 6.20901 14.567 6.17531 14.5043 6.14059C14.4508 6.11078 14.3973 6.08096 14.3422 6.05024C14.1812 5.9752 14.0591 5.93096 13.8812 5.91838C13.735 5.9759 13.735 5.9759 13.5818 6.06818C13.4952 6.11931 13.4952 6.11931 13.4067 6.17148C13.3448 6.20916 13.2828 6.24684 13.2189 6.28566C13.0852 6.36476 12.9514 6.44372 12.8175 6.52256C12.7144 6.5836 12.7144 6.5836 12.6092 6.64588C12.2872 6.83391 11.96 7.01226 11.6324 7.19063C11.0637 7.50168 10.5005 7.82083 9.93933 8.14482C9.50036 8.39761 9.05798 8.64372 8.61349 8.88697C7.96969 9.23935 7.33237 9.60172 6.69682 9.96825C6.34801 10.1693 5.99698 10.3664 5.64486 10.5618C5.50215 10.6439 5.50215 10.6439 5.44053 10.7045C5.43282 10.8268 5.42946 10.9494 5.42773 11.0719C5.42649 11.1518 5.42525 11.2318 5.42397 11.3141C5.42291 11.4035 5.42187 11.4929 5.42083 11.5824C5.41954 11.6759 5.41823 11.7694 5.4169 11.863C5.40532 12.7181 5.399 13.5733 5.39398 14.4285C5.39018 15.0608 5.38381 15.6929 5.3741 16.3252C5.3675 16.7695 5.36397 17.2139 5.36267 17.6583C5.3618 17.9238 5.35956 18.1891 5.35397 18.4546C5.34875 18.7046 5.34735 18.9544 5.34881 19.2045C5.34869 19.296 5.34721 19.3876 5.34423 19.4791C5.33557 19.7595 5.3418 20.0094 5.44053 20.2767C5.68449 20.5012 5.93707 20.6248 6.24147 20.7614C6.3631 20.828 6.48427 20.8956 6.60464 20.9644C6.7261 21.0307 6.84764 21.0968 6.96925 21.1627C7.49008 21.4473 8.00735 21.7368 8.52108 22.0336C9.08475 22.3591 9.65312 22.6753 10.2243 22.9878C10.666 23.2301 11.1038 23.4782 11.54 23.73C12.0655 24.0327 12.5926 24.3324 13.1226 24.6274C13.2204 24.6824 13.2204 24.6824 13.3201 24.7385C13.381 24.7722 13.4419 24.8059 13.5046 24.8406C13.5581 24.8704 13.6116 24.9002 13.6667 24.9309C13.8277 25.006 13.9498 25.0502 14.1277 25.0628C14.2739 25.0053 14.2739 25.0053 14.4271 24.913C14.4849 24.8789 14.5428 24.8447 14.6025 24.8095C14.6643 24.7719 14.7262 24.7343 14.79 24.6955C14.922 24.6174 15.0542 24.5394 15.1864 24.4615C15.2549 24.4209 15.3234 24.3803 15.394 24.3385C15.744 24.133 16.1009 23.9396 16.4573 23.7451C16.5861 23.6748 16.7149 23.6044 16.8436 23.534C16.9248 23.4898 16.9248 23.4898 17.0077 23.4446C17.1182 23.3824 17.2255 23.3147 17.3314 23.2453C17.3542 23.0809 17.3542 23.0809 17.3537 22.8673C17.3538 22.8281 17.354 22.7889 17.3541 22.7486C17.3544 22.6166 17.3534 22.4848 17.3524 22.3528C17.3524 22.2585 17.3524 22.1642 17.3525 22.0699C17.3525 21.8133 17.3515 21.5567 17.3502 21.3001C17.349 21.0321 17.3489 20.7642 17.3487 20.4962C17.3481 19.9886 17.3466 19.4809 17.3447 18.9733C17.3427 18.3954 17.3417 17.8176 17.3407 17.2397C17.3388 16.0508 17.3355 14.862 17.3314 13.6731C17.2835 13.647 17.2356 13.6209 17.1863 13.594C17.0065 13.4959 16.8267 13.3979 16.6469 13.2998C16.5695 13.2575 16.4921 13.2153 16.4147 13.1731C15.8227 12.8505 15.2363 12.5202 14.6553 12.1786C14.5969 12.1446 14.5385 12.1107 14.4783 12.0757C14.4282 12.0462 14.3782 12.0168 14.3266 11.9865C14.0958 11.8683 14.0958 11.8683 13.9428 11.8556C13.7901 11.9169 13.7901 11.9169 13.6187 12.0139C13.5552 12.0493 13.4918 12.0847 13.4265 12.1212C13.3592 12.1597 13.292 12.1983 13.2228 12.238C13.1542 12.2766 13.0857 12.3151 13.0151 12.3548C12.8104 12.4703 12.6064 12.5868 12.4026 12.7037C12.3449 12.7367 12.2873 12.7697 12.2279 12.8036C11.9361 12.9708 11.5835 13.2605 11.2936 13.4308C11.2936 13.4308 11.4966 13.5523 11.7078 13.6648C11.7695 13.6982 11.8313 13.7315 11.895 13.7659C11.9621 13.8015 12.0292 13.8371 12.0984 13.8738C12.2385 13.9494 12.3786 14.0251 12.5186 14.101C12.5545 14.1204 12.5905 14.1398 12.6276 14.1598C13.0173 14.3708 13.4013 14.5913 13.785 14.8128C13.9081 14.8839 14.0312 14.955 14.1544 15.026C14.2316 15.0708 14.2316 15.0708 14.3104 15.1164C14.3919 15.1627 14.4747 15.2069 14.5589 15.2483C14.5704 16.0803 14.5791 16.9124 14.5845 17.7445C14.587 18.1309 14.5905 18.5172 14.5961 18.9036C14.6015 19.2763 14.6044 19.6491 14.6057 20.0219C14.6066 20.1642 14.6084 20.3065 14.6111 20.4488C14.6146 20.648 14.6151 20.847 14.6149 21.0462C14.6167 21.1052 14.6184 21.1641 14.6203 21.2249C14.6195 21.5318 14.6195 21.5318 14.4513 21.7769C14.1963 21.9456 14.1963 21.9456 13.9009 21.9419C13.8537 21.9122 13.8066 21.8825 13.758 21.8519C13.6823 21.8132 13.6823 21.8132 13.6051 21.7737C13.5516 21.7442 13.4981 21.7147 13.443 21.6843C13.3821 21.6508 13.3212 21.6173 13.2585 21.5828C13.1933 21.5466 13.1282 21.5105 13.061 21.4732C12.9928 21.4355 12.9245 21.3978 12.8542 21.3589C12.3317 21.0692 11.8132 20.773 11.296 20.4743C10.789 20.1823 10.2774 19.8989 9.76328 19.619C9.64635 19.5552 9.53028 19.4898 9.41518 19.4228C9.25307 19.3363 9.1058 19.27 8.93546 19.2053C8.63668 19.0807 8.36452 18.9481 8.15141 18.7015C7.9644 18.2457 8.02983 17.7182 8.04913 17.2376C8.05108 17.0945 8.05257 16.9514 8.05362 16.8082C8.0576 16.433 8.06788 16.0581 8.07949 15.683C8.09024 15.2997 8.095 14.9163 8.10027 14.5328C8.11147 13.7816 8.12933 13.0307 8.15141 12.2797C8.19915 12.2528 8.24689 12.226 8.29608 12.1984C8.59321 12.0314 8.89035 11.8644 9.18748 11.6975C9.22495 11.6764 9.26241 11.6554 9.30102 11.6337C9.3773 11.5908 9.45358 11.548 9.52986 11.5051C9.72366 11.3962 9.91746 11.2873 10.1113 11.1784C10.1494 11.157 10.1875 11.1356 10.2268 11.1135C10.3315 11.0547 10.4362 10.9958 10.5409 10.937C10.7493 10.8199 10.9576 10.7028 11.166 10.5857C11.4284 10.4382 11.6909 10.2909 11.9535 10.1437C12.1093 10.0563 12.2652 9.96892 12.4211 9.88149C12.5297 9.82059 12.6383 9.75976 12.747 9.69894C12.8139 9.66137 12.8809 9.62381 12.9498 9.58511C13.0136 9.54955 13.0774 9.514 13.1432 9.47737C13.2646 9.40743 13.3843 9.33458 13.5021 9.25882C13.5559 9.22436 13.6097 9.1899 13.6651 9.15439C13.7116 9.12328 13.758 9.09217 13.8059 9.06012C13.9437 8.99249 13.9437 8.99249 14.0945 9.04911C14.1461 9.07558 14.1977 9.10204 14.2509 9.12931C14.3266 9.168 14.3266 9.168 14.4038 9.20746C14.4573 9.23697 14.5108 9.26647 14.5659 9.29686C14.6572 9.34712 14.6572 9.34712 14.7504 9.39839C14.8156 9.43454 14.8807 9.4707 14.9479 9.50796C15.0161 9.54568 15.0844 9.5834 15.1547 9.62226C15.6772 9.91194 16.1956 10.2082 16.7129 10.5069C17.2199 10.7989 17.7315 11.0823 18.2456 11.3621C18.3624 11.4259 18.4785 11.491 18.5938 11.5574C18.7496 11.6448 18.9076 11.716 19.0726 11.7848C19.5741 12.0022 19.5741 12.0022 19.9177 12.4008C20.0142 12.757 19.9926 13.1232 19.982 13.4885C19.9823 13.611 19.9831 13.7334 19.9843 13.8559C19.9863 14.187 19.9818 14.5179 19.9761 14.849C19.9713 15.1954 19.9724 15.5419 19.9729 15.8884C19.9729 16.5439 19.9676 17.1993 19.9603 17.8548C19.9524 18.6013 19.9503 19.3477 19.9488 20.0943C19.9455 21.6293 19.9348 23.1643 19.9191 24.6993C19.8323 24.7269 19.8323 24.7269 19.7438 24.755C19.5594 24.8171 19.4108 24.89 19.244 24.988C19.1864 25.0215 19.1288 25.055 19.0695 25.0895C19.0081 25.1257 18.9466 25.1619 18.8832 25.1991C18.3593 25.5037 17.8327 25.8021 17.3006 26.0927C16.7825 26.3762 16.2681 26.6652 15.7565 26.9598C15.6953 26.9949 15.6341 27.03 15.571 27.0661C15.297 27.2231 15.0239 27.3812 14.7532 27.5437C14.6653 27.5952 14.5775 27.6467 14.4896 27.6982C14.4323 27.7338 14.4323 27.7338 14.3737 27.7702C14.2017 27.8697 14.0961 27.9144 13.8964 27.8866C13.599 27.7416 13.315 27.5779 13.0302 27.4104C12.5063 27.1058 11.9796 26.8074 11.4476 26.5168C10.941 26.2396 10.438 25.9573 9.93812 25.6686C9.37444 25.3432 8.80608 25.027 8.23492 24.7144C7.79323 24.4721 7.35534 24.2241 6.91919 23.9723C6.35645 23.6474 5.7891 23.3317 5.21884 23.0197C4.68509 22.727 4.15674 22.4257 3.62999 22.1209C3.57202 22.0874 3.51404 22.0539 3.45431 22.0194C3.40345 21.9899 3.3526 21.9604 3.30021 21.93C3.17406 21.8592 3.0444 21.7946 2.91449 21.7307C2.91449 17.6122 2.91449 13.4938 2.91449 9.25048C3.46344 8.95059 4.01239 8.6507 4.57798 8.34172C5.32501 7.91385 5.32501 7.91385 5.68938 7.70346C6.06574 7.48719 6.44588 7.27788 6.82678 7.06946C7.39541 6.75829 7.95872 6.43927 8.51987 6.11527C8.95884 5.86249 9.40121 5.61637 9.84571 5.37312C10.4135 5.06242 10.976 4.74394 11.5362 4.4204C12.0653 4.11567 12.5995 3.82023 13.1353 3.5271C13.1961 3.49379 13.257 3.46048 13.3197 3.42616C13.3732 3.39698 13.4268 3.3678 13.4819 3.33773C13.5892 3.27804 13.6946 3.21491 13.7983 3.14938C13.9397 3.05364 13.9397 3.05364 14.1053 3.0965C14.4079 3.23615 14.6919 3.40209 14.9787 3.57076C15.5026 3.87534 16.0292 4.17373 16.5613 4.46437C17.0679 4.74154 17.5708 5.0239 18.0708 5.31254C18.6344 5.63799 19.2028 5.95417 19.774 6.26673C20.2156 6.50904 20.6535 6.75706 21.0897 7.00888C21.6524 7.33379 22.2198 7.64953 22.79 7.96148C23.3238 8.25421 23.8521 8.55551 24.3789 8.86023C24.4659 8.91049 24.4659 8.91049 24.5546 8.96176C24.6054 8.99126 24.6563 9.02076 24.7087 9.05115C24.8348 9.12194 24.9645 9.1866 25.0944 9.25048C25.1147 14.3686 25.1351 19.4867 25.156 24.7599C25.7152 24.485 26.2566 24.2089 26.7925 23.8966C26.8566 23.8596 26.9206 23.8225 26.9866 23.7844C27.157 23.6858 27.3273 23.587 27.4972 23.4876C27.5503 23.4683 27.6034 23.449 27.6581 23.4291C27.8303 23.2849 27.8296 23.2544 27.8473 23.0418C27.8505 22.9267 27.852 22.8115 27.8523 22.6963C27.8536 22.6329 27.8549 22.5696 27.8562 22.5043C27.8602 22.2908 27.862 22.0774 27.8637 21.8639C27.866 21.7112 27.8685 21.5586 27.871 21.4059C27.8781 20.947 27.8825 20.488 27.8863 20.029C27.8877 19.856 27.8893 19.683 27.8909 19.51C27.8979 18.747 27.9038 17.984 27.9072 17.221C27.908 17.0342 27.9089 16.8474 27.9097 16.6607C27.9101 16.591 27.9101 16.591 27.9104 16.52C27.914 15.7691 27.9237 15.0184 27.936 14.2675C27.9485 13.496 27.9554 12.7245 27.9569 11.9529C27.9579 11.5198 27.9613 11.0871 27.971 10.6541C27.9802 10.2463 27.9817 9.83902 27.9781 9.43103C27.9781 9.28179 27.9805 9.13253 27.9857 8.98338C28.0159 8.06361 28.0159 8.06361 27.8053 7.6753C27.4365 7.31496 26.9686 7.10342 26.4972 6.90134C26.2875 6.81012 26.0945 6.7033 25.8973 6.58858C25.7837 6.52663 25.6701 6.46478 25.5565 6.40304C25.0498 6.12599 24.5469 5.84351 24.047 5.55487C23.4833 5.22942 22.915 4.91325 22.3438 4.60068C21.9021 4.35837 21.4642 4.11035 21.0281 3.85853C20.4644 3.53308 19.896 3.21691 19.3249 2.90434C18.8832 2.66203 18.4453 2.41401 18.0091 2.16219C17.4465 1.83733 16.8792 1.52166 16.3091 1.20973C15.6593 0.853331 15.0173 0.484237 14.3762 0.113041C14.135 -0.024154 14.0343 -0.0214429 13.758 0.0417637Z" fill="#3E3128"/>
</svg>
